<svg width="80" height="32" viewBox="0 0 80 32" fill="none" xmlns="http://www.w3.org/2000/svg">
<path d="M12.24 0.159997H18.48L30.56 31.2H22.16L20.64 26.72H9.92L8.24 31.2H0L12.24 0.159997ZM12.08 20.4H18.56L15.36 9.6L12.08 20.4ZM43.6 7.12C46.2667 7.12 48.5867 7.76 50.56 9.04C52.32 10.16 53.68 11.7067 54.64 13.68C55.5467 15.4933 56 17.4133 56 19.44C56 21.4667 55.5467 23.3867 54.64 25.2C53.68 27.1733 52.32 28.7467 50.56 29.92C48.5867 31.2 46.2667 31.84 43.6 31.84C40.9333 31.84 38.5867 31.2 36.56 29.92C34.8 28.7467 33.44 27.1733 32.48 25.2C31.5733 23.3867 31.12 21.4933 31.12 19.52C31.12 17.4933 31.5733 15.5733 32.48 13.76C33.44 11.7867 34.8 10.2133 36.56 9.04C38.5867 7.76 40.9333 7.12 43.6 7.12ZM43.6 25.36C45.0933 25.36 46.3733 24.8 47.44 23.68C48.56 22.5067 49.12 21.0933 49.12 19.44C49.12 17.7867 48.5867 16.4 47.52 15.28C46.4533 14.16 45.1467 13.6 43.6 13.6C42.0533 13.6 40.72 14.16 39.6 15.28C38.5333 16.4 38 17.8133 38 19.52C38 21.1733 38.5333 22.56 39.6 23.68C40.72 24.8 42.0533 25.36 43.6 25.36ZM59.92 0.159997H66.88L66.96 0.32V31.2H59.92V0.159997ZM75.36 22.08C76.64 22.08 77.7333 22.5333 78.64 23.44C79.5467 24.3467 80 25.44 80 26.72C80 28 79.5467 29.0933 78.64 30C77.7333 30.9067 76.64 31.36 75.36 31.36C74.08 31.36 72.9867 30.9067 72.08 30C71.1733 29.0933 70.72 28 70.72 26.72C70.72 25.44 71.1733 24.3467 72.08 23.44C72.9867 22.5333 74.08 22.08 75.36 22.08Z" fill="#232323"/>
</svg>
