<svg width="100" height="22" viewBox="0 0 100 22" fill="none" xmlns="http://www.w3.org/2000/svg">
<path d="M0 21.3L9.6 6.5L15.8 7.1L6.6 21.3H0ZM49.2 0.599997V6.1H9.9L11.1 4.2C11.9 2.8 12.4333 1.96667 12.7 1.7C13.1667 0.966664 13.8333 0.599997 14.7 0.599997H24.6V5.7L25 4.6C25.2667 3.8 25.6 3.2 26 2.8L26.1 2.7C26.7 2.1 27.2333 1.66666 27.7 1.4C28.5 0.933332 29.4333 0.666665 30.5 0.599997H49.2ZM80 0.599997H100V6.1H74.1V5.7L74.5 4.6C74.7667 3.8 75.1 3.2 75.5 2.8L75.7 2.6C76.3667 2 76.9 1.6 77.3 1.4C78.1 0.933332 79 0.666665 80 0.599997ZM50.2 0.599997V6.1H55.7V0.599997H50.2ZM68.5 0.599997V6.1H74.1V0.599997H68.5ZM68.6 14.1V7.8L74.1 8.1V15.8C74.1 17 73.8 18 73.2 18.8C72.8 19.4667 72.2 20.0333 71.4 20.5C70.8 20.8333 70.1667 21.0667 69.5 21.2L68.6 21.4H55.9L54.7 21.2C54.1667 21.0667 53.6333 20.8667 53.1 20.6C52.4333 20.2 51.8667 19.7 51.4 19.1C50.8 18.3 50.4 17.3667 50.2 16.3V15.4C50.2 15.8 50.1667 16.1333 50.1 16.4L49.8 17.5C49.4667 18.3667 49 19.1 48.4 19.7C47.5333 20.5667 46.4333 21.1333 45.1 21.4H18.9V7.4L24.4 7.7V15.9H43.9C44.3 15.9 44.6 15.7667 44.8 15.5C45 15.2333 45.1 15.0333 45.1 14.9C45.1 14.1 44.6667 13.7 43.8 13.7L29.8 12.6L28.7 12.2C27.8333 11.8667 27.1333 11.4667 26.6 11C25.6667 10.2667 25.1 9.2 24.9 7.8L45 9.4C46.5333 9.53333 47.8 10.2667 48.8 11.6C49.5333 12.4667 50 13.3333 50.2 14.2V14.4V6.5L55.7 6.9V14.2C55.7 14.7333 55.8 15.1333 56 15.4C56.2667 15.6667 56.5667 15.8333 56.9 15.9L57.3 16H66.8C67.3333 16 67.7333 15.8667 68 15.6C68.2667 15.3333 68.4333 15 68.5 14.6C68.5667 14.4 68.6 14.2333 68.6 14.1ZM94.7 9.4C96.1667 9.53333 97.4333 10.2333 98.5 11.5C99.3 12.4333 99.7667 13.3333 99.9 14.2V14.8C99.9 15.3333 99.8667 15.8667 99.8 16.4L99.6 17.1C99.4 17.7 99.1333 18.2667 98.8 18.8C98.3333 19.4667 97.7667 20.0333 97.1 20.5C96.2333 21.0333 95.2333 21.3333 94.1 21.4H74.1V15.9H93.6C93.8 15.9 94 15.8667 94.2 15.8L94.5 15.7C94.7667 15.4333 94.9 15.1333 94.9 14.8C94.9 14.0667 94.4333 13.7 93.5 13.7L79.4 12.5L78.3 12.2C77.5 11.8667 76.8333 11.4667 76.3 11L76.2 10.9C75.8 10.5667 75.5 10.2667 75.3 10C74.9667 9.53333 74.7 8.9 74.5 8.1L83.9 8.7C90.3 9.1 93.9 9.33333 94.7 9.4Z" fill="#101010"/>
</svg>
