<svg width="100" height="20" viewBox="0 0 100 20" fill="none" xmlns="http://www.w3.org/2000/svg">
<path d="M29.9 0.999997H38.3L46.1 19.1H39.8L38.6 15.8H29.6L28.4 19.1H22.2L29.9 0.999997ZM31.1 11.9H37.1L34.6 5H33.6L31.1 11.9ZM16.3 12H22.3C22.3 13.4667 22.1667 14.6 21.9 15.4C21.7 16.2 21.2667 16.9333 20.6 17.6C19.8 18.4 18.6 18.9 17 19.1C15.9333 19.2333 14 19.3 11.2 19.3C8.4 19.3 6.3 19.1667 4.9 18.9C3.56667 18.6333 2.5 18.1333 1.7 17.4C0.966667 16.6667 0.5 15.8333 0.3 14.9C0.1 13.9 0 12.2667 0 10C0 7.66666 0.1 6.03333 0.3 5.1C0.5 4.1 0.966667 3.23333 1.7 2.5C2.5 1.7 3.6 1.16667 5 0.899999C6.2 0.699997 8.26667 0.599996 11.2 0.599996C14.1333 0.599996 16.1667 0.699997 17.3 0.899999C18.6333 1.1 19.6333 1.53333 20.3 2.2C21.0333 2.86666 21.5 3.63333 21.7 4.5C21.9667 5.3 22.0667 6.33333 22 7.6H16.1V7.3C16.0333 6.63333 15.9 6.2 15.7 6C15.5 5.8 15 5.66667 14.2 5.6C13.6667 5.53333 12.6333 5.5 11.1 5.5C9.63333 5.5 8.63333 5.53333 8.1 5.6C7.16667 5.66667 6.6 5.8 6.4 6C6.2 6.2 6.06667 6.6 6 7.2C5.93333 7.6 5.9 8.53333 5.9 10C5.9 11.4 5.93333 12.3 6 12.7C6 13.2333 6.1 13.6333 6.3 13.9C6.56667 14.1 7.16667 14.2333 8.1 14.3C8.63333 14.3667 9.66667 14.4 11.2 14.4C12.7333 14.4 13.7333 14.3667 14.2 14.3C15 14.2333 15.5 14.1 15.7 13.9C15.9 13.7 16.0333 13.5 16.1 13.3C16.1667 13.0333 16.2333 12.6 16.3 12ZM60.9 8C63.0333 8.13333 64.5333 8.6 65.4 9.4C66.3333 10.2 66.8 11.6333 66.8 13.7C66.8 15.3667 66.3667 16.6333 65.5 17.5C64.9667 18.0333 64.4667 18.4333 64 18.7C63.4 18.9667 62.5667 19.1667 61.5 19.3C60.4333 19.3667 58.7333 19.4 56.4 19.4C54.1333 19.4 52.4333 19.3333 51.3 19.2C50.1667 19.0667 49.3 18.8667 48.7 18.6C48.2333 18.4 47.7333 18.0667 47.2 17.6C46.7333 17.0667 46.4 16.3667 46.2 15.5C46.1333 15.0333 46.1 14.3667 46.1 13.5H51.9C51.9 14.1 52.1 14.5333 52.5 14.8C52.9 15 53.6667 15.1 54.8 15.1H58.1C59.2333 15.1 60 15.0333 60.4 14.9C60.8 14.7 61 14.2667 61 13.6C61 13.0667 60.8667 12.7333 60.6 12.6C60.3333 12.4 59.8 12.2667 59 12.2L51.2 11.8C47.8 11.6667 46.1 9.86667 46.1 6.4C46.1 5.66667 46.2 4.96667 46.4 4.3C46.6667 3.43333 47.0667 2.76667 47.6 2.3C48.2667 1.63333 49.3 1.2 50.7 0.999997C51.5667 0.866664 53.3 0.799997 55.9 0.799997C58.7 0.799997 60.5333 0.866664 61.4 0.999997C62.8 1.2 63.8 1.63333 64.4 2.3C65.0667 2.9 65.5 3.6 65.7 4.4C65.9 5 66 5.73333 66 6.6H60.2C60.2 5.86667 60 5.43333 59.6 5.3C59.2 5.1 58.2667 5 56.8 5H55.3C53.7667 5 52.8333 5.06667 52.5 5.2C51.9667 5.33333 51.7 5.7 51.7 6.3C51.7 6.9 51.8333 7.3 52.1 7.5C52.3667 7.63333 52.8 7.7 53.4 7.7H54L60.9 8ZM69 1.1V19H74.9V1.1H69ZM98.1 2.4C98.9 3.2 99.4 4.1 99.6 5.1C99.8667 6.1 100 7.73333 100 10C100 12.2667 99.8667 13.9 99.6 14.9C99.4 15.9 98.9 16.8 98.1 17.6C97.3 18.4 96.1 18.9 94.5 19.1C93.3 19.3 91.4 19.4 88.8 19.4C86.2 19.4 84.3333 19.3 83.2 19.1C81.5333 18.9 80.3 18.4 79.5 17.6C78.7 16.8 78.1667 15.9 77.9 14.9C77.7 13.9 77.6 12.2667 77.6 10C77.6 7.73333 77.7 6.1 77.9 5.1C78.1667 4.1 78.7 3.2 79.5 2.4C80.3 1.6 81.5 1.1 83.1 0.899999C84.2333 0.699997 86.1333 0.599996 88.8 0.599996C91.4667 0.599996 93.3667 0.699997 94.5 0.899999C96.1 1.1 97.3 1.6 98.1 2.4ZM93.5 13.9C93.7667 13.6333 93.9333 13.2667 94 12.8C94.0667 12.2667 94.1 11.3333 94.1 10C94.1 8.66667 94.0667 7.76667 94 7.3C93.9333 6.76667 93.7667 6.4 93.5 6.2C93.3 5.93333 92.7667 5.76667 91.9 5.7C91.3667 5.63333 90.3333 5.6 88.8 5.6C87.3333 5.6 86.3 5.63333 85.7 5.7C84.8333 5.76667 84.2667 5.93333 84 6.2C83.8 6.4 83.6667 6.76667 83.6 7.3C83.5333 7.76667 83.5 8.66667 83.5 10C83.5 11.3333 83.5333 12.2667 83.6 12.8C83.6667 13.2667 83.8 13.6333 84 13.9C84.2667 14.1 84.8333 14.2333 85.7 14.3C86.3 14.3667 87.3333 14.4 88.8 14.4C90.3333 14.4 91.3667 14.3667 91.9 14.3C92.7667 14.2333 93.3 14.1 93.5 13.9Z" fill="#232323"/>
</svg>
