<svg width="101" height="22" viewBox="0 0 101 22" fill="none" xmlns="http://www.w3.org/2000/svg">
<path d="M10.6 18.9C10.9333 18.9 11.2 19 11.4 19.2C11.6 19.4 11.7 19.6667 11.7 20V20.9H5.9C4.23333 20.9 2.83333 20.3667 1.7 19.3C0.566667 18.1667 0 16.5667 0 14.5C0 12.7 0.566667 11.2333 1.7 10.1C2.9 8.96666 4.4 8.4 6.2 8.4C7.46667 8.4 8.56667 8.76667 9.5 9.5C10.5 10.2333 11.1667 11.2 11.5 12.4C11.7 13.1333 11.6 13.7333 11.2 14.2C10.8667 14.6667 10.2667 14.9333 9.4 15L2.2 15.8C2.33333 16.8667 2.73333 17.6667 3.4 18.2C4.13333 18.6667 5 18.9 6 18.9H10.6ZM6.2 10.3C5 10.3 4.03333 10.6667 3.3 11.4C2.56667 12.0667 2.2 12.9667 2.2 14.1L8.1 13.4C8.76667 13.2667 9.16667 13.1333 9.3 13C9.43333 12.8667 9.5 12.7333 9.5 12.6C9.5 12.4 9.43333 12.2333 9.3 12.1C9.1 11.5667 8.7 11.1333 8.1 10.8C7.56667 10.4667 6.93333 10.3 6.2 10.3ZM21.9 9.4C21.9 8.73333 22.2333 8.4 22.9 8.4H24.1V20.9L21.9 21V9.4ZM18.8 19.1C19.6 19.1 20 19.4333 20 20.1V21H18.8C17.2 21 16.1333 20.8667 15.6 20.6C14.7333 20.2667 14.3 19.5 14.3 18.3V10.4H13.8C13 10.4 12.6 10.0667 12.6 9.4C12.6 8.73333 13 8.4 13.8 8.4H14.3V6L14.4 5.6C14.5333 5.33333 14.7667 5.16666 15.1 5.1H16.5V8.4H18.4C19.2 8.4 19.6 8.73333 19.6 9.4C19.6 10.0667 19.2 10.4 18.4 10.4H16.5V17.8C16.5 18.4 16.6333 18.7667 16.9 18.9C17.2333 19.0333 17.8667 19.1 18.8 19.1ZM23.8 7.2C23.6667 7.33333 23.4333 7.4 23.1 7.4L22.7 7.5H21.9V6C21.9 5.4 22.2333 5.1 22.9 5.1H24.1V6.2C24.1 6.73333 24 7.06667 23.8 7.2ZM72.3 19.1C72.6333 19.1 72.9 19.2 73.1 19.4C73.3667 19.6 73.5 19.8333 73.5 20.1V20.9H72.2C70.6667 20.9 69.6333 20.8 69.1 20.6C68.2333 20.2667 67.8 19.5 67.8 18.3V10.4H67.2C66.4667 10.4 66.1 10.0667 66.1 9.4C66.1 8.73333 66.4667 8.4 67.2 8.4H67.8V6L67.9 5.6C67.9667 5.33333 68.2 5.16666 68.6 5.1H70V8.4H71.9C72.7 8.4 73.1 8.73333 73.1 9.4C73.1 10.0667 72.7 10.4 71.9 10.4H70V17.8C70 18.4 70.1333 18.7667 70.4 18.9C70.7333 19.0333 71.3667 19.1 72.3 19.1ZM61.1 8.4C62.5667 8.4 63.6 8.86666 64.2 9.8C64.6667 10.4667 64.9 11.4667 64.9 12.8V21H64C63.2667 21 62.9 20.6333 62.9 19.9V19.8C62.6333 20.2 62.1667 20.5 61.5 20.7C61.0333 20.9 60.5 21 59.9 21H59.2C57.8 21 56.6333 20.6667 55.7 20C54.8333 19.3333 54.4 18.4333 54.4 17.3C54.4 15.8333 54.9333 14.8 56 14.2C56.6 13.8 57.7667 13.5 59.5 13.3C60.4333 13.2333 61.1333 13.1333 61.6 13H61.7C62.3 12.8 62.6333 12.5 62.7 12.1V11.8C62.7 11.2667 62.5333 10.9 62.2 10.7C61.9333 10.5 61.4333 10.4 60.7 10.4H56.5C55.7 10.4 55.3 10.0667 55.3 9.4C55.3 8.73333 55.7 8.4 56.5 8.4H61.1ZM62.7 16.4V14.6C62.1667 14.7333 61.3333 14.8667 60.2 15L58.6 15.2C58 15.3333 57.5 15.5667 57.1 15.9C56.7667 16.2333 56.6 16.6667 56.6 17.2C56.6 18.6 57.5667 19.3 59.5 19.3C60.5667 19.3 61.3667 19.1 61.9 18.7C62.4333 18.2333 62.7 17.4667 62.7 16.4ZM51.6 5H52.8V21H50.6V5.9L50.7 5.4C50.8333 5.13333 51.1333 5 51.6 5ZM34.1 13.9C35.9667 14.1667 36.9 15.2333 36.9 17.1C36.9 19.7 35.4 21 32.4 21H26V19.9C26 19.6333 26.1 19.4 26.3 19.2C26.5667 19 26.8667 18.9 27.2 18.9H32.2C33.1333 18.9 33.7667 18.7667 34.1 18.5C34.5 18.2333 34.7 17.8333 34.7 17.3C34.7 16.7667 34.6 16.4 34.4 16.2C34.2 15.9333 33.7667 15.7667 33.1 15.7L29.2 15.1C27.4 14.7 26.4333 13.8 26.3 12.4C26.2333 11.3333 26.4333 10.4333 26.9 9.7C27.5 8.83333 28.4 8.4 29.6 8.4H34.6C35.4 8.4 35.8 8.73333 35.8 9.4C35.8 10.0667 35.4 10.4 34.6 10.4H29.6C29.1333 10.4667 28.8 10.7 28.6 11.1C28.4667 11.4333 28.4333 11.8 28.5 12.2C28.5 12.4 28.6 12.6 28.8 12.8C29 12.9333 29.5 13.0667 30.3 13.2L34.1 13.9ZM44.7 8.4C46.1667 8.4 47.2 8.86666 47.8 9.8C48.2667 10.4667 48.5 11.4667 48.5 12.8V21H47.6C46.8667 21 46.5 20.6333 46.5 19.9V19.8C46.1 20.3333 45.4 20.7 44.4 20.9C43.8667 20.9667 43.3 21 42.7 21C41.3 21 40.1667 20.6667 39.3 20C38.4333 19.3333 38 18.4333 38 17.3C38 15.8333 38.5333 14.8 39.6 14.2C40.2 13.8 41.3333 13.5 43 13.3C43.9333 13.2333 44.6333 13.1333 45.1 13H45.2C45.8667 12.8 46.2333 12.5 46.3 12.1V11.8C46.3 11.2667 46.1333 10.9 45.8 10.7C45.5333 10.5 45.0333 10.4 44.3 10.4H40.1C39.3 10.4 38.9 10.0667 38.9 9.4C38.9 8.73333 39.3 8.4 40.1 8.4H44.7ZM43.1 19.3C44.1667 19.3 44.9667 19.1 45.5 18.7C46.0333 18.2333 46.3 17.4667 46.3 16.4V14.6C45.7667 14.7333 44.9333 14.8667 43.8 15L42.2 15.2C41.6 15.3333 41.1 15.5667 40.7 15.9C40.3667 16.2333 40.2 16.6667 40.2 17.2C40.2 18.6 41.1667 19.3 43.1 19.3ZM99.4 10.4C99.8667 11.3333 100.067 12.1667 100 12.9L99.9 13.4L99.7 13.9C99.3667 14.5667 98.8333 15.1667 98.1 15.7C97.0333 16.5 95.8333 17.1 94.5 17.5C93.6333 17.8333 92.3 18.2667 90.5 18.8L88.9 19.3C86.9 19.8333 85.4333 20.2667 84.5 20.6L81.7 21.6C81.3667 21.7333 81.1333 21.7667 81 21.7C80.9333 21.6333 80.8667 21.4333 80.8 21.1C80.5333 19.7 80.1333 18.3 79.6 16.9L77.8 11.7C77.1333 9.76667 76.6667 8.1 76.4 6.7C76.0667 5.56666 76 4.43333 76.2 3.3C76.3333 2.63333 76.5667 2.1 76.9 1.7L77 1.5C77.0667 1.5 77.1 1.46666 77.1 1.4L77.2 1.3C77.9333 0.699997 78.8667 0.33333 80 0.199997C80.9333 0.133331 81.9667 0.199998 83.1 0.399997C83.9667 0.599998 85.1667 0.966665 86.7 1.5C88.2333 2.03333 90.0667 2.86667 92.2 4L92.9 4.4C93.7 5 94.3 5.43333 94.7 5.7C95.6333 6.3 96.6 7.1 97.6 8.1C98.4 8.9 99 9.66667 99.4 10.4ZM91.2 14.2C91.8667 13.5333 92.1 12.7667 91.9 11.9C91.7 10.8333 91.1333 9.93333 90.2 9.2C89.4 8.4 88.4333 7.8 87.3 7.4C85.8333 6.93333 84.6333 6.76667 83.7 6.9C82.5667 7.1 81.8333 7.66667 81.5 8.6C81.3 9.06667 81.2 9.76667 81.2 10.7C81.2 11.4333 81.3 12.2 81.5 13C81.7667 14.3333 82.1 15.4 82.5 16.2C82.9667 17 83.6333 17.3667 84.5 17.3C85.1667 17.3 85.8333 17.2 86.5 17C87.5 16.6667 88.3667 16.2667 89.1 15.8L89.3 15.7C90.2333 15.1 90.8667 14.6 91.2 14.2Z" fill="#232323"/>
</svg>
