<svg width="101" height="27" viewBox="0 0 101 27" fill="none" xmlns="http://www.w3.org/2000/svg">
<path d="M9.2 2.2V2.3C9.13333 2.56667 9.06667 4.3 9 7.5C8.93333 10.7 8.93333 12.3333 9 12.4H10.6C11.6 12.4 12.2333 12.3333 12.5 12.2C13.2333 12.0667 13.7667 11.5667 14.1 10.7C14.5 9.83333 14.7 9.26667 14.7 9C14.7 8.93333 14.7333 8.9 14.8 8.9H15.6V17.2H14.8L14.6 16.5C14.2 14.9667 13.5 14.0667 12.5 13.8C12.2333 13.7333 11.0667 13.7 9 13.7C8.93333 13.7 8.93333 14.6 9 16.4C9.06667 18.2 9.13333 19.5 9.2 20.3C9.26667 21.4333 9.4 22.3 9.6 22.9C9.86667 23.5 10.2333 23.9333 10.7 24.2C10.8333 24.2667 11.1667 24.3667 11.7 24.5C12.3 24.6333 12.7 24.7 12.9 24.7V25.5H0.1V24.7L0.4 24.6C0.666667 24.6 0.933333 24.5333 1.2 24.4C2.13333 24.3333 2.76667 23.7667 3.1 22.7C3.3 22.1 3.43333 21.2667 3.5 20.2C3.56667 19.1333 3.63333 17.1 3.7 14.1C3.7 8.5 3.56667 5.06667 3.3 3.8C3.1 2.86666 2.73333 2.26666 2.2 2C1.93333 1.73333 1.43333 1.56666 0.7 1.5L0 1.4V0.599996H20.1V1.7C20.1667 2.1 20.2 3.23333 20.2 5.1L20.3 7.4L19.8 7.6L19.2 7.7L19 7.1C18.8 6.5 18.6333 6.06667 18.5 5.8C17.5667 4 16.4333 2.86666 15.1 2.4L14.5 2.2H11.9H9.2ZM32.6 9.3C34.5333 11.0333 35.4333 13.5667 35.3 16.9C35.1667 20.2333 34 22.7 31.8 24.3C31.0667 24.9 30 25.3667 28.6 25.7C28.2667 25.8333 27.6333 25.9 26.7 25.9H25.2C24.5333 25.7667 23.9667 25.6333 23.5 25.5H23.3C22.1 25.0333 21.1 24.4 20.3 23.6C18.7 21.8667 17.9 19.5667 17.9 16.7C17.9 13.8333 18.7667 11.4667 20.5 9.6C22.1 8 24.2 7.2 26.8 7.2C29.2 7.2 31.1333 7.9 32.6 9.3ZM28.9 23.2C29.5667 21.9333 29.9 19.8 29.9 16.8C29.9 12.9333 29.2667 10.3667 28 9.1C27.6667 8.83333 27.4 8.66667 27.2 8.6C27 8.46666 26.7333 8.4 26.4 8.4C24.8 8.4 23.8333 10 23.5 13.2C23.4333 13.9333 23.4 15 23.4 16.4C23.4 17.7333 23.4333 18.7333 23.5 19.4C23.7667 21.3333 24.2333 22.7667 24.9 23.7C25.5667 24.5667 26.4 24.8667 27.4 24.6C27.9333 24.4667 28.4333 24 28.9 23.2ZM99.6 17.8C100 18.7333 100.067 19.8667 99.8 21.2C99.6 22.4667 99 23.5 98 24.3C97.0667 25.1 95.8333 25.6 94.3 25.8C93.2333 26.0667 92 26.0667 90.6 25.8C89.9333 25.7333 89.1667 25.6 88.3 25.4C87.4333 25.2 86.9333 25.0667 86.8 25C86.7333 24.8667 86.7 23.9667 86.7 22.3L86.6 19.7H86.8C87.0667 19.5667 87.2333 19.5333 87.3 19.6C87.3667 19.6667 87.4333 19.8667 87.5 20.2C88.6333 22.8 90.1333 24.2 92 24.4C93.4667 24.4667 94.4667 23.9333 95 22.8C95.1333 22.5333 95.2333 22.3333 95.3 22.2V21.6V20.9C95.2333 20.7667 95.1333 20.6 95 20.4C94.8667 20.0667 94.6667 19.8 94.4 19.6C93.9333 19.2667 92.9 18.8 91.3 18.2C89.7 17.5333 88.6667 16.8667 88.2 16.2C87.4 15.4 87 14.3 87 12.9C87 12.0333 87.1667 11.2667 87.5 10.6C88.2333 9.06667 89.6 8 91.6 7.4C92 7.33333 92.8 7.3 94 7.3C95.2 7.3 96 7.33333 96.4 7.4C97.4 7.53333 98.1667 7.73333 98.7 8L99 8.1V12.7L98.4 12.9C98.4 12.9 98.4 12.8667 98.4 12.8C98 11.8667 97.6667 11.1333 97.4 10.6C96.6667 9.4 95.8 8.7 94.8 8.5C93.9333 8.3 93.1333 8.43333 92.4 8.9C91.7333 9.36667 91.4 10.0667 91.4 11C91.4 11.6667 91.5667 12.2 91.9 12.6C92.4333 13.2667 93.6 13.9667 95.4 14.7C96.7333 15.3 97.7 15.8333 98.3 16.3C98.9 16.7 99.3333 17.2 99.6 17.8ZM80.8 7.7C83 8.36667 84.4 10.1333 85 13C85.2 13.6667 85.3 14.4667 85.3 15.4V15.7H74.6C74.5333 15.7667 74.5333 16.0667 74.6 16.6C74.6667 18.2667 75 19.6333 75.6 20.7C75.8 21.1 76.1 21.5 76.5 21.9C76.9667 22.3 77.4 22.5667 77.8 22.7C79 23.3667 80.2333 23.6 81.5 23.4C82.0333 23.3333 82.4667 23.2667 82.8 23.2C83.1333 23.0667 83.5667 22.8333 84.1 22.5C84.4333 22.3667 84.6333 22.3 84.7 22.3C84.7667 22.3 84.8333 22.4 84.9 22.6C85.0333 22.7333 84.8 23.1 84.2 23.7C83.6 24.2333 82.9 24.7 82.1 25.1C81.3 25.4333 80.5 25.6667 79.7 25.8C79.2333 25.8667 78.7 25.9 78.1 25.9C77.5 25.9 77 25.8667 76.6 25.8C74.8 25.4667 73.2667 24.7 72 23.5C70.8 22.3 70 20.7667 69.6 18.9C69.5333 18.5 69.5 17.7667 69.5 16.7C69.5 15.6333 69.5333 14.9 69.6 14.5C70.0667 12.5 70.9 10.9 72.1 9.7C73.7 8.03333 75.7333 7.2 78.2 7.2C79.2667 7.2 80.1333 7.36666 80.8 7.7ZM79.9 14.2V13.3C79.7 10.0333 79 8.4 77.8 8.4C77.1333 8.4 76.5333 8.83333 76 9.7C75.5333 10.5 75.1667 11.6333 74.9 13.1L74.8 14.3H76.1C77.3667 14.3 78.2333 14.2667 78.7 14.2H79.9ZM49.9 7.4L50.1 7.5C50.2333 7.56666 50.2667 7.63333 50.2 7.7C50.2 7.76667 49.9333 8.56667 49.4 10.1L48.5 12.3L47.9 12.1C46.7667 11.5667 45.6667 11.4 44.6 11.6C44.2667 11.6667 43.8 11.9 43.2 12.3L43.1 12.5V16.6C43.1 19.2 43.1333 21 43.2 22C43.2667 22.9333 43.4 23.5667 43.6 23.9C43.8 24.1667 44 24.3333 44.2 24.4C44.4667 24.4667 44.9333 24.5333 45.6 24.6L46.1 24.7V25.5H35.6V24.7L36.2 24.6C36.7333 24.4667 37.0333 24.3667 37.1 24.3C37.5667 24.0333 37.8333 23.6333 37.9 23.1C38.0333 22.5 38.1 20.7333 38.1 17.8C38.1667 14.8667 38.1333 12.8333 38 11.7C37.9333 10.9667 37.7667 10.4333 37.5 10.1C37.3 9.7 36.9 9.46667 36.3 9.4L35.7 9.3C35.6333 9.3 35.6 9.26666 35.6 9.2V8.8C35.6667 8.73333 37.0667 8.43333 39.8 7.9C41.8667 7.5 42.9333 7.26667 43 7.2H43.1V11.2C43.2333 11.2 43.4 10.9667 43.6 10.5C44.7333 8.43333 46.2333 7.33333 48.1 7.2H48.3C48.8333 7.13333 49.3667 7.2 49.9 7.4ZM66.7 11.2C67.3667 12.4667 67.7333 13.9 67.8 15.5C67.8 18.9 66.8667 21.5667 65 23.5C63.7333 24.7 62 25.5 59.8 25.9C57.8 26.1 55.3333 25.9 52.4 25.3L51.7 25.2V23.8C51.7667 22.6667 51.8 19.3333 51.8 13.8C51.8 8.26667 51.7667 5.26667 51.7 4.8C51.6333 3.8 51.4 3.1 51 2.7C50.8667 2.56667 50.7333 2.46666 50.6 2.4L49.6 2.1L49.3 2C49.3 1.93333 49.3 1.83333 49.3 1.7C49.3 1.5 49.3333 1.4 49.4 1.4C49.9333 1.4 51.1 1.2 52.9 0.799997C55.0333 0.33333 56.2333 0.0999968 56.5 0.0999968L56.8 -1.90735e-06L56.7 4.2C56.7 7 56.7333 8.4 56.8 8.4C56.9333 8.4 57.2 8.3 57.6 8.1C58.2667 7.83333 59 7.66666 59.8 7.6C60.6667 7.46666 61.4667 7.46666 62.2 7.6C64.1333 8 65.6333 9.2 66.7 11.2ZM62.2 18.4C62.2667 17.9333 62.3 17.2 62.3 16.2C62.3 15.3333 62.2667 14.6333 62.2 14.1C61.8 11.7667 60.9667 10.3 59.7 9.7C59.4333 9.56666 59.2333 9.46667 59.1 9.4H58.5C58.1667 9.4 57.8 9.46667 57.4 9.6L56.9 9.7V12.3C56.8333 13.9 56.8 16.3 56.8 19.5C56.8667 22.6333 56.9333 24.2667 57 24.4C57.0667 24.5333 57.2333 24.6 57.5 24.6C57.9667 24.6667 58.3333 24.6667 58.6 24.6C59.1333 24.5333 59.6 24.3 60 23.9C61.1333 22.8333 61.8667 21 62.2 18.4Z" fill="#232323"/>
</svg>
