<svg width="200" height="66" viewBox="0 0 200 66" fill="none" xmlns="http://www.w3.org/2000/svg">
<path d="M68.2 18.4C72.7333 18.4 76.6 19.9333 79.8 23C83 26.0667 84.6 29.9333 84.6 34.6C84.6 39.2667 83 43.2 79.8 46.4C76.6 49.4667 72.7333 51 68.2 51C63.6667 51 59.8 49.4667 56.6 46.4C53.4 43.2 51.8 39.2667 51.8 34.6C51.8 29.9333 53.4 26.0667 56.6 23C59.8 19.9333 63.6667 18.4 68.2 18.4ZM68.2 44.6C70.6 44.6 72.7333 43.6667 74.6 41.8C76.4667 39.8 77.4 37.4 77.4 34.6C77.4 31.8 76.4667 29.4667 74.6 27.6C72.8667 25.7333 70.7333 24.8 68.2 24.8C65.6667 24.8 63.4667 25.7333 61.6 27.6C59.8667 29.4667 59 31.8 59 34.6C59 37.4 59.8667 39.8 61.6 41.8C63.4667 43.6667 65.6667 44.6 68.2 44.6ZM25.6 23.4H49C49.2667 25 49.4 26.4667 49.4 27.8C49.4 30.7333 49 33.4667 48.2 36C47.1333 39.2 45.5333 41.8 43.4 43.8C38.8667 48.6 32.9333 51 25.6 51C21.0667 51 16.8 49.8667 12.8 47.6C8.93333 45.2 5.8 42.0667 3.4 38.2C1.13333 34.3333 0 30.1333 0 25.6C0 21.0667 1.13333 16.8667 3.4 13C5.8 9.13333 8.93333 6.06666 12.8 3.8C16.8 1.53333 21.0667 0.399998 25.6 0.399998C32.2667 0.399998 38.0667 2.73333 43 7.4L38.2 12.2C34.6 8.86666 30.3333 7.19999 25.4 7.19999C20.6 7.19999 16.4 8.99999 12.8 12.6C9.33333 16.2 7.6 20.5333 7.6 25.6C7.6 30.6667 9.33333 35 12.8 38.6C16.4 42.2 20.7333 44 25.8 44C30.8667 44 35.0667 42.3333 38.4 39C40.5333 36.8667 41.8 34 42.2 30.4H25.6V23.4ZM159.4 2V50H166.4V2H159.4ZM186.2 44.6C189.4 44.6 192.067 43.0667 194.2 40L199.8 43.8C198.6 45.6667 197.067 47.2 195.2 48.4C192.4 50.1333 189.4 51 186.2 51C181.533 51 177.667 49.4667 174.6 46.4C171.533 43.2 170 39.2667 170 34.6C170 29.9333 171.467 26.0667 174.4 23C177.467 19.9333 181.133 18.4 185.4 18.4C189.133 18.4 192.333 19.6667 195 22.2C197 24.0667 198.4 26.2667 199.2 28.8L200 30.6L178.2 39.6C179.8 42.9333 182.467 44.6 186.2 44.6ZM185.6 24.6C183.6 24.6 181.667 25.4 179.8 27C177.8 29 176.867 31.4 177 34.2L191.6 28.2C191.2 27.1333 190.4 26.2667 189.2 25.6C188.133 24.9333 186.933 24.6 185.6 24.6ZM147.6 22V19.4H154.4V48.6C154.4 54.2 152.867 58.5333 149.8 61.6C147 64.2667 143.4 65.6 139 65.6C135.4 65.6 132.2 64.5333 129.4 62.4C127.133 60.6667 125.467 58.5333 124.4 56L130.6 53.4C131.267 55 132.267 56.2667 133.6 57.2C135.2 58.5333 137 59.2 139 59.2C141.667 59.2 143.733 58.4 145.2 56.8C146.8 55.0667 147.6 52.6667 147.6 49.6V47.2H147.4C146.6 48.2667 145.4 49.2 143.8 50C142.333 50.6667 140.667 51 138.8 51C134.667 51 131 49.4 127.8 46.2C124.733 43 123.2 39.2 123.2 34.8C123.2 30.2667 124.733 26.4 127.8 23.2C131 20 134.667 18.4 138.8 18.4C140.533 18.4 142.133 18.8 143.6 19.6C145.2 20.2667 146.467 21.0667 147.4 22H147.6ZM139.4 44.6C141.8 44.6 143.8 43.6667 145.4 41.8C147.133 39.9333 148 37.6 148 34.8C148 31.8667 147.133 29.4667 145.4 27.6C143.8 25.7333 141.733 24.8 139.2 24.8C136.8 24.8 134.733 25.7333 133 27.6C131.267 29.4667 130.4 31.8667 130.4 34.8C130.4 37.6 131.267 39.9333 133 41.8C134.733 43.6667 136.867 44.6 139.4 44.6ZM103.8 18.4C108.333 18.4 112.2 19.9333 115.4 23C118.6 26.0667 120.2 29.9333 120.2 34.6C120.2 39.2667 118.6 43.2 115.4 46.4C112.2 49.4667 108.333 51 103.8 51C99.2667 51 95.4 49.4667 92.2 46.4C89 43.2 87.4 39.2667 87.4 34.6C87.4 29.9333 89 26.0667 92.2 23C95.4 19.9333 99.2667 18.4 103.8 18.4ZM103.8 44.6C106.333 44.6 108.467 43.6667 110.2 41.8C112.067 39.8 113 37.4 113 34.6C113 31.8 112.067 29.4667 110.2 27.6C108.467 25.7333 106.333 24.8 103.8 24.8C101.267 24.8 99.0667 25.7333 97.2 27.6C95.4667 29.4667 94.6 31.8 94.6 34.6C94.6 37.4 95.4667 39.8 97.2 41.8C99.0667 43.6667 101.267 44.6 103.8 44.6Z" fill="#232323"/>
</svg>
