<svg width="201" height="89" viewBox="0 0 201 89" fill="none" xmlns="http://www.w3.org/2000/svg">
<path d="M170.8 57.6C172 57.6 172.733 58.0667 173 59C173.4 59.9333 173.333 60.8 172.8 61.6C172.267 62.4 171.533 62.8 170.6 62.8C152.2 61.6 133.267 62.0667 113.8 64.2C95.9333 66.0667 79.0667 69.0667 63.2 73.2C47.8667 77.3333 35.2667 82.0667 25.4 87.4C23.5333 88.4667 21.8 88.8667 20.2 88.6C18.6 88.3333 17.5333 87.6667 17 86.6C16.3333 85.1333 16.4667 83.5333 17.4 81.8C18.4667 79.6667 20.7333 77.8 24.2 76.2C30.2 73.4 39.4667 70.4 52 67.2C68.4 63.2 85.5333 60.2667 103.4 58.4C126.2 56.1333 148.667 55.8667 170.8 57.6ZM189 35.6C189.8 34.6667 190.6 34.3333 191.4 34.6C192.333 34.8667 192.867 35.6 193 36.8C193.267 37.8667 192.933 39 192 40.2C189.867 43 186.933 45.4667 183.2 47.6C179.467 49.7333 176.4 50.6667 174 50.4C172 50.2667 170.667 49.0667 170 46.8C169.467 45.2 169.333 43.4 169.6 41.4V40.6C166.8 43.1333 164 45.1333 161.2 46.6C157.867 48.4667 154.8 49.4667 152 49.6C149.333 49.6 147.067 48.9333 145.2 47.6C143.333 46.1333 142.333 43.8667 142.2 40.8C142.2 39.4667 142.333 37.4667 142.6 34.8C140.867 34.4 139.533 33.8 138.6 33C135.933 37.6667 133 41.5333 129.8 44.6C126.067 48.2 122.6 50.0667 119.4 50.2C116.867 50.3333 115 49.5333 113.8 47.8C112.6 45.9333 112.067 43.5333 112.2 40.6C112.2 38.2 112.533 35.6667 113.2 33C111.067 34.8667 109.2 36.0667 107.6 36.6C105.6 37.2667 103.933 36.9333 102.6 35.6C101.667 34.5333 101.333 32.9333 101.6 30.8C101.733 29.7333 102.2 28.0667 103 25.8L103.6 23.6C103.733 23.0667 103.667 22.8 103.4 22.8C102.6 22.8 101.6 23.7333 100.4 25.6C98.8 27.8667 97.3333 30.8 96 34.4C94.4 38.9333 93.2 44.1333 92.4 50C92.2667 51.3333 91.4667 52.2667 90 52.8C88.5333 53.3333 87.1333 53.3333 85.8 52.8C84.6 52.2667 84.0667 51.2 84.2 49.6C84.3333 49.4667 84.4 49.2667 84.4 49L84.6 48.2C80.8667 52.4667 77.4 54.8667 74.2 55.4C72.6 55.6667 71.2 55.3333 70 54.4C69.2 53.7333 68.6 52.8667 68.2 51.8L67.6 50.2L66.4 52.2C65.3333 53.6667 64.2667 54.9333 63.2 56C61.6 57.4667 60.0667 58.2667 58.6 58.4C56.4667 58.5333 54.7333 57.9333 53.4 56.6C52.2 55.1333 51.4667 53.1333 51.2 50.6C50.8 47.1333 51.3333 43 52.8 38.2C54.4 33.4 56.5333 29.2667 59.2 25.8C62.2667 21.9333 65.6 19.8 69.2 19.4C70.2667 19.2667 71.2 19.4 72 19.8C72.8 20.0667 73.4 20.4 73.8 20.8L74.4 21.4L75.4 19.8C76.3333 18.7333 77.3333 18.1333 78.4 18C79.6 17.7333 80.6 17.8667 81.4 18.4C82.2 18.9333 82.6667 19.8667 82.8 21.2C82.9333 22.2667 82.6 23.8 81.8 25.8C81.1333 27.8 80.4 29.4667 79.6 30.8C79.4667 31.0667 79.1333 32.3333 78.6 34.6C77.9333 37.1333 77.6 39.2 77.6 40.8C77.4667 42.9333 77.8 44 78.6 44C80.8667 43.7333 83.7333 40.5333 87.2 34.4L87.4 34.2C89.1333 25.6667 90.4 20.6 91.2 19C92 17.4 93 16.3333 94.2 15.8C95.5333 15.2667 96.6667 15.2667 97.6 15.8C98.6667 16.2 99.2 16.8667 99.2 17.8C99.3333 18.6 99.2667 19.6 99 20.8L98.4 22.2L99.8 20.2C101 18.6 102.133 17.2667 103.2 16.2C104.8 14.7333 106.2 13.9333 107.4 13.8C108.6 13.5333 109.733 13.8 110.8 14.6C111.867 15.4 112.533 16.6 112.8 18.2C112.933 19.2667 112.4 21.2 111.2 24C110.667 25.3333 110.333 26.2667 110.2 26.8C109.933 27.6 110 28.1333 110.4 28.4C110.933 28.6667 112.867 27 116.2 23.4C116.733 21.8 117.6 19.9333 118.8 17.8C120 15.6667 121.533 14.3333 123.4 13.8C125.267 13.1333 126.733 13.2 127.8 14C128.333 14.2667 128.667 14.7333 128.8 15.4C129.067 16.0667 129.067 16.9333 128.8 18C128.533 19.4667 127.533 21 125.8 22.6C124.333 27.2667 123.333 31 122.8 33.8C122.133 37.6667 122.267 39.6667 123.2 39.8C124.533 39.8 126.467 38.4 129 35.6C131.533 32.8 133.2 30.1333 134 27.6L133.2 25.2C132.667 23.2 132.533 21.4667 132.8 20C133.067 17.4667 133.8 15.6 135 14.4C136.2 13.0667 137.467 12.4 138.8 12.4C140.8 12.2667 142.2 12.9333 143 14.4C143.933 15.7333 144.267 17.6 144 20C143.6 22 142.8 24.3333 141.6 27C142.267 27.5333 143.267 27.9333 144.6 28.2C146.6 23.8 149.333 20.1333 152.8 17.2C156.267 14.1333 159.6 12.6 162.8 12.6C164.8 12.6 166.533 13.1333 168 14.2C169.6 15.5333 170.467 17.3333 170.6 19.6C170.6 23.0667 169.333 26.1333 166.8 28.8C164.8 30.9333 162.133 32.6 158.8 33.8C156.133 34.7333 153.733 35.2667 151.6 35.4C151.333 38.8667 152.6 40.6 155.4 40.6C159.933 40.6 165.4 37.4 171.8 31C173.4 25.9333 175.4 21.2 177.8 16.8C180.2 12.2667 182.733 8.73333 185.4 6.19999C188.067 3.53333 190.6 2 193 1.59999C195.4 1.06666 197.333 1.53333 198.8 3C200.267 4.46666 201 6.6 201 9.4C201 13.5333 198.4 18.4 193.2 24C189.067 28.4 184.667 32.0667 180 35L179.4 37.2C179.133 38.8 179.333 39.9333 180 40.6C180.667 41.1333 181.933 40.9333 183.8 40C185.667 38.9333 187.4 37.4667 189 35.6ZM193.4 9.19999C192.333 9.19999 190.667 10.7333 188.4 13.8C186.933 16.0667 185.2 19 183.2 22.6L180.8 27.2L184.2 24C186.867 21.4667 189.067 19.1333 190.8 17C193.067 14.0667 194.2 11.8 194.2 10.2C194.2 9.53332 193.933 9.19999 193.4 9.19999ZM161 20.8C160.067 20.8 158.933 21.5333 157.6 23C156.4 24.3333 155.267 26 154.2 28C156.6 27.8667 158.6 27.2667 160.2 26.2C161.933 25.1333 162.8 23.8667 162.8 22.4C162.8 21.3333 162.2 20.8 161 20.8ZM70.8 29.2C71.0667 28.2667 71.1333 27.6 71 27.2C70.8667 26.6667 70.5333 26.4 70 26.4C68.5333 26.4 67.0667 27.4667 65.6 29.6C64.2667 31.4667 63.0667 33.8 62 36.6C61.0667 39.4 60.5333 41.8667 60.4 44C60.4 46.1333 60.8667 47.2 61.8 47.2C63.1333 47.0667 64.9333 44.4667 67.2 39.4C69.3333 34.7333 70.5333 31.3333 70.8 29.2ZM21.6 33.2C19.8667 33.2 18.0667 35.6667 16.2 40.6C14.3333 45.1333 12.8667 50.6 11.8 57C10.7333 63.2667 10.3333 68.3333 10.6 72.2C10.7333 74.2 10 75.7333 8.4 76.8C6.8 77.7333 5.13333 77.8 3.4 77C1.8 76.2 1 74.5333 1 72C0.866667 63.7333 1.86667 55.4667 4 47.2C6.13333 38.9333 8.86667 32.2 12.2 27C15.8 21.6667 19.4667 19.1333 23.2 19.4C25.3333 19.5333 27 20.6 28.2 22.6C29 23.9333 29.5333 25.7333 29.8 28V30.8L32 25.8C34 21.9333 36 18.8 38 16.4C40.9333 13.0667 43.8 11.4 46.6 11.4C48.0667 11.4 49.3333 12 50.4 13.2C51.6 14.4 52.3333 16 52.6 18C52.8667 20 52.6667 22.4 52 25.2C51.6 26.9333 50.8667 29.6 49.8 33.2C48.2 38.4 47.1333 42.3333 46.6 45C45.9333 49.6667 46 53.9333 46.8 57.8C47.0667 59.2667 46.4 60.4667 44.8 61.4C43.2 62.3333 41.5333 62.5333 39.8 62C38.0667 61.3333 37 59.7333 36.6 57.2C36.2 54.6667 36.3333 51.4667 37 47.6C37.2667 45.3333 37.9333 42.0667 39 37.8C39.8 34.2 40.2667 31.8 40.4 30.6C40.6667 28.7333 40.3333 27.8 39.4 27.8C37.6667 27.8 35.8667 30.2 34 35C32.4 39.1333 31.0667 44.0667 30 49.8C29.0667 55.4 28.8 59.6 29.2 62.4C29.3333 64 28.6 65.2667 27 66.2C25.5333 67.1333 23.9333 67.2 22.2 66.4C20.6 65.6 19.6667 63.9333 19.4 61.4C19.2667 58.8667 19.9333 53.8 21.4 46.2C22.2 41.8 22.6667 38.8 22.8 37.2C22.9333 34.5333 22.5333 33.2 21.6 33.2Z" fill="#232323"/>
</svg>
