<svg width="100" height="28" viewBox="0 0 100 28" fill="none" xmlns="http://www.w3.org/2000/svg">
<path d="M77.5 0.799998C77.9 0.799998 78.2333 0.933331 78.5 1.2C78.8333 1.46666 79 1.83333 79 2.3V25.7C79 26.1667 78.8333 26.5667 78.5 26.9C78.2333 27.1667 77.9 27.3 77.5 27.3H75.3C74.8333 27.3 74.4667 27.1667 74.2 26.9C73.9333 26.5667 73.8 26.1667 73.8 25.7V2.3C73.8 1.83333 73.9333 1.46666 74.2 1.2C74.4667 0.933331 74.8333 0.799998 75.3 0.799998H77.5ZM82.7 4.8C82.5 4.8 82.3 4.73333 82.1 4.6C81.9667 4.46666 81.9 4.26667 81.9 4V2.9C81.9 2.36667 82.1667 2.03333 82.7 1.9L98.2 0.399997C98.5333 0.333331 98.8333 0.466665 99.1 0.799998C99.3667 1.06666 99.5 1.36667 99.5 1.7V3.6C99.5 3.93333 99.3667 4.23333 99.1 4.5C98.8333 4.7 98.5333 4.8 98.2 4.8H82.7ZM71.6 8C71.9333 8 72.2 8.1 72.4 8.3C72.6 8.5 72.7 8.76667 72.7 9.1V10.6C72.7 10.8667 72.6 11.1333 72.4 11.4C72.2 11.6 71.9333 11.7 71.6 11.7H68.2V20.4C68.2 21.2667 68.4333 21.9667 68.9 22.5C69.4333 23.0333 70.1667 23.3 71.1 23.3H71.4C71.7333 23.3 72 23.4333 72.2 23.7C72.4667 23.9 72.6 24.1333 72.6 24.4V26.1C72.6 26.3667 72.4667 26.6333 72.2 26.9C72 27.1667 71.7333 27.3 71.4 27.3H69.3C67.5 27.3 66 26.7 64.8 25.5C63.6667 24.2333 63.1 22.7667 63.1 21.1V11.7H62C61.7333 11.7 61.4667 11.6 61.2 11.4C61 11.1333 60.9 10.8667 60.9 10.6V9.1C60.9 8.76667 61 8.5 61.2 8.3C61.4667 8.1 61.7333 8 62 8H63.1V2.2C63.1 1.8 63.2333 1.46666 63.5 1.2C63.7667 0.933331 64.1 0.799998 64.5 0.799998H66.7C67.1667 0.799998 67.5333 0.933331 67.8 1.2C68.0667 1.46666 68.2 1.8 68.2 2.2V8H71.6ZM33.3 7.3C36.4333 7.3 38.9 8.33333 40.7 10.4C42.2333 12.2667 43 14.5667 43 17.3C43 18.4333 42.4333 19 41.3 19H28.8C28.9333 20.2 29.4 21.2333 30.2 22.1C31 22.9 32.0333 23.3 33.3 23.3C35.0333 23.3 36.3333 22.6667 37.2 21.4C37.5333 21 37.9333 20.8 38.4 20.8H41.4C41.7333 20.8 41.9667 20.9333 42.1 21.2C42.3 21.4 42.3667 21.6333 42.3 21.9C41.9 23.6333 40.8333 25.0333 39.1 26.1C37.3667 27.1 35.4333 27.6 33.3 27.6C30.3667 27.6 28 26.6 26.2 24.6C24.4667 22.6 23.6 20.1667 23.6 17.3C23.6 14.5667 24.4333 12.2667 26.1 10.4C27.9667 8.33333 30.3667 7.3 33.3 7.3ZM28.9 15.2H37.8C37.7333 14.1333 37.2333 13.2333 36.3 12.5C35.4333 11.7 34.4333 11.3 33.3 11.3C32.1667 11.3 31.1667 11.6667 30.3 12.4C29.5 13.1333 29.0333 14.0667 28.9 15.2ZM100 17.3C100 18.4333 99.4333 19 98.3 19H85.8C85.9333 20.2 86.4 21.2333 87.2 22.1C88 22.9 89.0333 23.3 90.3 23.3C92.0333 23.3 93.3333 22.6667 94.2 21.4C94.5333 21 94.9667 20.8 95.5 20.8H98.4C98.7333 20.8 98.9667 20.9333 99.1 21.2C99.3 21.4 99.3667 21.6333 99.3 21.9C98.9 23.6333 97.8333 25.0333 96.1 26.1C94.4333 27.1 92.5333 27.6 90.4 27.6C87.4667 27.6 85.0667 26.5667 83.2 24.5C81.4667 22.5667 80.6 20.1667 80.6 17.3C80.6 14.5667 81.4333 12.2667 83.1 10.4C84.9667 8.33333 87.3667 7.3 90.3 7.3C93.4333 7.3 95.9 8.33333 97.7 10.4C99.2333 12.2667 100 14.5667 100 17.3ZM85.9 15.2H94.8C94.7333 14.1333 94.2333 13.2333 93.3 12.5C92.4333 11.7 91.4333 11.3 90.3 11.3C89.1667 11.3 88.1667 11.6667 87.3 12.4C86.5 13.1333 86.0333 14.0667 85.9 15.2ZM58.9 5H21.9V25.6C21.9 26.0667 21.7333 26.4667 21.4 26.8C21.0667 27.1333 20.6667 27.3 20.2 27.3H17.2C16.1333 27.3 15.2333 26.8 14.5 25.8C14.3667 25.5333 12.8 22.6667 9.8 17.2L5.4 9.2L5.5 25.6C5.5 26.0667 5.33333 26.4667 5 26.8C4.66667 27.0667 4.26667 27.2 3.8 27.2H1.7C1.23333 27.2 0.833333 27.0667 0.5 26.8C0.166667 26.4667 0 26.0667 0 25.6V2.2C0 1.73333 0.166667 1.36666 0.5 1.1C0.833333 0.766664 1.23333 0.599997 1.7 0.599997H5C5.6 0.599997 6.13333 0.733331 6.6 0.999998C7.06667 1.26667 7.4 1.6 7.6 2L16.8 18.6L16.7 2.7C16.7 2.23333 16.8333 1.83333 17.1 1.5C17.4333 1.16666 17.8333 0.999998 18.3 0.999998H58.9C59.2333 0.999998 59.5 1.1 59.7 1.3C59.9 1.5 60 1.76666 60 2.1V3.8C60 4.13333 59.9 4.43333 59.7 4.7C59.5 4.9 59.2333 5 58.9 5ZM56.1 15.8C57.6333 16.2 58.8333 16.8667 59.7 17.8C60.5667 18.7333 61 19.9 61 21.3C61 23.5 60.0333 25.1333 58.1 26.2C56.5 27.1333 54.6 27.6 52.4 27.6C50.8 27.6 49.3333 27.3333 48 26.8C46.6667 26.2667 45.6 25.5667 44.8 24.7C44.0667 23.8333 43.7 22.9333 43.7 22V21.7C43.7 21.4333 43.8 21.2333 44 21.1C44.2 20.9 44.4333 20.8 44.7 20.8H47.1C47.5 20.8 47.8 20.8667 48 21C48.2667 21.0667 48.4667 21.2333 48.6 21.5C48.8667 22.1 49.3667 22.6 50.1 23C50.8333 23.3333 51.6 23.5 52.4 23.5C53.4 23.5 54.2 23.3333 54.8 23C55.4667 22.6667 55.8 22.1333 55.8 21.4C55.8 21 55.6 20.7 55.2 20.5C54.8667 20.2333 54.3667 20 53.7 19.8C52.7 19.5333 51.2 19.1667 49.2 18.7C47.6667 18.3 46.4333 17.6667 45.5 16.8C44.6333 15.9333 44.2 14.8 44.2 13.4C44.2 11.5333 44.9333 10.0667 46.4 9C47.8667 7.86666 49.8 7.3 52.2 7.3C54.6 7.3 56.5667 7.83333 58.1 8.9C59.6333 9.9 60.4 11.1333 60.4 12.6C60.4 12.8667 60.3 13.1 60.1 13.3C59.9667 13.4333 59.8 13.5 59.6 13.5H57.1C56.4333 13.5 56.0333 13.3 55.9 12.9C55.6333 12.3667 55.1667 11.9333 54.5 11.6C53.9 11.2667 53.1667 11.1 52.3 11.1C51.4333 11.1 50.7 11.2667 50.1 11.6C49.5667 11.8667 49.3 12.3667 49.3 13.1C49.3 13.5 49.5333 13.8333 50 14.1C50.3333 14.3 50.8333 14.5 51.5 14.7C51.9 14.7667 53.4333 15.1333 56.1 15.8Z" fill="#232323"/>
</svg>
