<svg width="40" height="40" viewBox="0 0 40 40" fill="none" xmlns="http://www.w3.org/2000/svg">
<g clip-path="url(#clip0_70_1572)">
<path d="M0 19.3506V38.1216L11.709 27.0722C1.43718 20.298 6.88157 23.888 0 19.3506Z" fill="#101010"/>
<path d="M28.2918 27.0722L40 38.1216V19.3506C39.9953 19.3537 28.2965 27.0691 28.2918 27.0722Z" fill="#101010"/>
<path d="M20.6478 32.1131C20.256 32.3723 19.7449 32.3728 19.3522 32.1131L13.7271 28.4033L1.78432 39.6731H38.2157L26.2737 28.4033L20.6478 32.1131Z" fill="#101010"/>
<path d="M19.4813 0.523148L16.2086 3.40856H23.7914L20.5187 0.523148C20.2223 0.261815 19.7777 0.261815 19.4813 0.523148Z" fill="#101010"/>
<path d="M4.22196 19.3168C4.22196 16.6199 4.22196 16.7698 4.22196 13.9756C1.50784 16.3682 2.2498 15.7141 0.756073 17.0313C0.756073 17.0313 2.50109 18.1823 4.22196 19.3168Z" fill="#101010"/>
<path d="M39.2439 17.0313C37.7757 15.7366 38.6254 16.4857 35.778 13.9756V19.3168C37.4963 18.1841 39.2439 17.0313 39.2439 17.0313Z" fill="#101010"/>
<path d="M20 29.7215C23.8545 27.18 28.9293 23.8331 33.4251 20.8682V6.54506C33.4251 6.11188 33.074 5.76074 32.6408 5.76074H7.35922C6.92604 5.76074 6.57491 6.11188 6.57491 6.54506V20.8682C18.3031 28.6029 13.8577 25.6715 20 29.7215ZM13.9498 11.2243H26.0502C26.6996 11.2243 27.2267 11.7513 27.2267 12.4007C27.2267 13.0509 26.6996 13.5772 26.0502 13.5772H13.9498C13.3004 13.5772 12.7733 13.0509 12.7733 12.4007C12.7733 11.7513 13.3004 11.2243 13.9498 11.2243ZM12.7733 18.3419V18.3341C12.7733 17.7302 13.2298 17.2313 13.8165 17.1654H26.1835C26.7702 17.2313 27.2267 17.7302 27.2267 18.3341V18.3419C27.2227 18.9882 26.6973 19.5105 26.0502 19.5105H13.9498C13.3027 19.5105 12.7773 18.9882 12.7733 18.3419Z" fill="#F94743"/>
</g>
<defs>
<clipPath id="clip0_70_1572">
<rect width="40" height="40" fill="white"/>
</clipPath>
</defs>
</svg>
