<svg width="36" height="36" viewBox="0 0 36 36" fill="none" xmlns="http://www.w3.org/2000/svg">
<g clip-path="url(#clip0_213_120)">
<path fill-rule="evenodd" clip-rule="evenodd" d="M18 0C27.9383 0 36 8.05556 36 18C36 27.9444 27.9383 36 18 36C8.06173 36 0 27.9383 0 18C0 8.06173 8.06173 0 18 0ZM18 8.59259C12.8025 8.59259 8.59259 12.8025 8.59259 18C8.59259 23.1975 12.8025 27.4074 18 27.4074C23.1975 27.4074 27.4074 23.1975 27.4074 18C27.4074 12.8025 23.1975 8.59259 18 8.59259Z" fill="#101010"/>
<path fill-rule="evenodd" clip-rule="evenodd" d="M18 0C27.9383 0 36 8.05556 36 18C36 24.0494 25.5123 28.8704 19.2037 27.3333C23.8333 26.7407 27.4136 22.7901 27.4136 18C27.4136 12.8025 23.1914 8.93827 18.0062 8.59259C9.74074 8.03704 2.73457 12.1975 0.0246914 18.9136C0.00617284 18.6111 0 18.3025 0 17.9938C0 8.05556 8.06173 0 18 0Z" fill="#F94743"/>
</g>
<defs>
<clipPath id="clip0_213_120">
<rect width="36" height="36" fill="white"/>
</clipPath>
</defs>
</svg>
