<svg width="158" height="36" viewBox="0 0 158 36" fill="none" xmlns="http://www.w3.org/2000/svg">
<path d="M158 25.8516V32.719H150.922V25.8516H158Z" fill="#F94743"/>
<path d="M140.453 10.0684C143.012 10.0684 145.038 10.9251 146.531 12.6386C148.051 14.3522 148.811 16.7083 148.811 19.7069V32.719H141.972V20.5101C141.972 19.0108 141.573 17.8461 140.773 17.0161C140 16.1594 138.96 15.731 137.653 15.731C136.267 15.731 135.161 16.1728 134.334 17.0563C133.534 17.9398 133.135 19.1982 133.135 20.8314V32.719H126.296V10.3093H133.135V14.4057C133.774 13.067 134.721 12.0095 135.974 11.233C137.254 10.4566 138.747 10.0684 140.453 10.0684Z" fill="white"/>
<path d="M112.392 10.0283C114.605 10.0283 116.578 10.4969 118.311 11.4339C120.071 12.3443 121.444 13.6696 122.43 15.4098C123.443 17.1501 123.95 19.1849 123.95 21.5143C123.95 23.8436 123.443 25.8784 122.43 27.6187C121.444 29.359 120.071 30.6977 118.311 31.6347C116.578 32.5451 114.605 33.0002 112.392 33.0002C110.18 33.0002 108.193 32.5451 106.434 31.6347C104.674 30.6977 103.288 29.359 102.275 27.6187C101.288 25.8784 100.795 23.8436 100.795 21.5143C100.795 19.1849 101.288 17.1501 102.275 15.4098C103.288 13.6696 104.674 12.3443 106.434 11.4339C108.193 10.4969 110.18 10.0283 112.392 10.0283ZM112.392 15.9721C111.086 15.9721 109.98 16.454 109.073 17.4179C108.193 18.355 107.754 19.7204 107.754 21.5143C107.754 23.3081 108.193 24.6736 109.073 25.6107C109.98 26.5477 111.086 27.0163 112.392 27.0163C113.699 27.0163 114.792 26.5477 115.672 25.6107C116.551 24.6736 116.991 23.3081 116.991 21.5143C116.991 19.7204 116.551 18.355 115.672 17.4179C114.792 16.454 113.699 15.9721 112.392 15.9721Z" fill="white"/>
<path d="M89.9684 10.0281C91.8079 10.0281 93.4476 10.4967 94.8872 11.4337C96.3535 12.344 97.4999 13.6693 98.3264 15.4096C99.1796 17.1232 99.6061 19.158 99.6061 21.5141C99.6061 23.8434 99.1796 25.8782 98.3264 27.6185C97.4999 29.3588 96.3535 30.6975 94.8872 31.6345C93.4476 32.5448 91.8079 33 89.9684 33C88.2621 33 86.7958 32.6118 85.5694 31.8353C84.343 31.0589 83.4499 30.0013 82.89 28.6626V32.7189H76.0516V3H82.89V14.3655C83.4499 13.0268 84.343 11.9692 85.5694 11.1928C86.7958 10.4163 88.2621 10.0281 89.9684 10.0281ZM87.7689 16.0522C86.3292 16.0522 85.1428 16.5475 84.2097 17.5382C83.3033 18.502 82.85 19.8273 82.85 21.5141C82.85 23.174 83.3033 24.4993 84.2097 25.49C85.1428 26.4806 86.3292 26.9759 87.7689 26.9759C89.2352 26.9759 90.4083 26.494 91.2881 25.5301C92.1945 24.5663 92.6478 23.2276 92.6478 21.5141C92.6478 19.8005 92.1945 18.4618 91.2881 17.498C90.4083 16.5341 89.2352 16.0522 87.7689 16.0522Z" fill="white"/>
<path d="M65.5554 27.5384H54.9579L53.1983 32.7191H46L56.3576 4.52637H64.2357L74.5933 32.7191H67.315L65.5554 27.5384ZM63.7958 22.3175L60.2767 11.8758L56.7175 22.3175H63.7958Z" fill="white"/>
<g clip-path="url(#clip0_70_1852)">
<path fill-rule="evenodd" clip-rule="evenodd" d="M18 0C27.9383 0 36 8.05556 36 18C36 27.9444 27.9383 36 18 36C8.06173 36 0 27.9383 0 18C0 8.06173 8.06173 0 18 0ZM18 8.59259C12.8025 8.59259 8.59259 12.8025 8.59259 18C8.59259 23.1975 12.8025 27.4074 18 27.4074C23.1975 27.4074 27.4074 23.1975 27.4074 18C27.4074 12.8025 23.1975 8.59259 18 8.59259Z" fill="white"/>
<path fill-rule="evenodd" clip-rule="evenodd" d="M18 0C27.9383 0 36 8.05556 36 18C36 24.0494 25.5123 28.8704 19.2037 27.3333C23.8333 26.7407 27.4136 22.7901 27.4136 18C27.4136 12.8025 23.1914 8.93827 18.0062 8.59259C9.74074 8.03704 2.73457 12.1975 0.0246914 18.9136C0.00617284 18.6111 0 18.3025 0 17.9938C0 8.05556 8.06173 0 18 0Z" fill="#F94743"/>
</g>
<defs>
<clipPath id="clip0_70_1852">
<rect width="36" height="36" fill="white"/>
</clipPath>
</defs>
</svg>
