<svg width="16" height="14" viewBox="0 0 16 14" fill="none" xmlns="http://www.w3.org/2000/svg">
<path d="M4.92112 8.63034H7.49828V7.57615H5.97534V5.11571C5.97534 4.01571 5.08363 3.12402 3.98366 3.12402H3.48572H2.98778C1.88778 3.12402 0.996094 4.01574 0.996094 5.11571V5.6428H4.92116V8.63034H4.92112Z" fill="#101010"/>
<path d="M7.9668 9.56836H4.9209V11.0913H6.97096V13.8631H8.4939V10.0955C8.4939 9.8048 8.25743 9.56836 7.9668 9.56836Z" fill="#101010"/>
<path d="M8.43555 8.70777C9.01386 8.90373 9.43139 9.45133 9.43139 10.095V10.2506H10.3689V9.31314H11.3064V10.2506H12.2439V11.1881H11.3064V12.1256H10.3689V11.1881H9.43139V13.8626H16V7.57617H8.43555V8.70777Z" fill="#101010"/>
<path d="M12.0156 6.63865H15.0043V5.11571C15.0043 4.01571 14.1126 3.12402 13.0126 3.12402H12.5147H12.0167C11.0783 3.12402 10.2919 3.77327 10.0811 4.64696H11.7666L12.0156 6.63865Z" fill="#101010"/>
<path d="M12.5143 3.12428C13.3393 3.12428 14.0081 2.45549 14.0081 1.6305C14.0081 0.805507 13.3393 0.136719 12.5143 0.136719C11.6893 0.136719 11.0205 0.805507 11.0205 1.6305C11.0205 2.45549 11.6893 3.12428 12.5143 3.12428Z" fill="#101010"/>
<path d="M3.48499 3.12428C4.30998 3.12428 4.97877 2.45549 4.97877 1.6305C4.97877 0.805507 4.30998 0.136719 3.48499 0.136719C2.66 0.136719 1.99121 0.805507 1.99121 1.6305C1.99121 2.45549 2.66 3.12428 3.48499 3.12428Z" fill="#101010"/>
<path d="M11.0709 6.63915L10.9391 5.58496H8.56445L8.6962 6.63915H11.0709Z" fill="#101010"/>
<path d="M3.98341 6.58008H0V13.8624H0.9375V11.0906H3.04591V13.8624H3.98341V6.58008Z" fill="#101010"/>
</svg>
