<svg width="24" height="24" viewBox="0 0 24 24" fill="none" xmlns="http://www.w3.org/2000/svg">
<path d="M14.1831 17.9226C12.7555 17.1703 11.1576 16.0392 9.55971 14.4435C7.96073 12.8434 6.82849 11.2433 6.07732 9.81349L7.31499 6.49034L3.14294 0L1.768 1.37714L1.7691 1.38043C1.76031 1.39032 1.74933 1.39581 1.73835 1.40789C-1.72976 4.8749 0.138275 11.9736 6.08391 17.9193C12.0296 23.8638 19.1272 25.7308 22.5964 22.2648C22.6063 22.2539 22.614 22.2429 22.6228 22.233L23.9977 20.8559L17.5096 16.6838L14.1831 17.9226Z" fill="#F94743"/>
<path d="M22.0749 12.492H23.9968C23.9968 5.6052 18.3938 0 11.5059 0V1.92185C17.334 1.92185 22.0749 6.66496 22.0749 12.492Z" fill="#F94743"/>
<path d="M18.2313 12.4921H20.1532C20.1532 7.72258 16.2755 3.84375 11.5049 3.84375V5.76559C15.2135 5.76559 18.2313 8.78344 18.2313 12.4921Z" fill="#F94743"/>
<path d="M14.3875 12.4921H16.3094C16.3094 9.84216 14.1536 7.6875 11.5059 7.6875V9.60934C13.096 9.60934 14.3875 10.903 14.3875 12.4921Z" fill="#F94743"/>
</svg>
