<svg width="16" height="16" viewBox="0 0 16 16" fill="none" xmlns="http://www.w3.org/2000/svg">
<path d="M9.45509 11.9484C8.50332 11.4469 7.43806 10.6928 6.37281 9.62899C5.30683 8.56228 4.552 7.49556 4.05122 6.54233L4.87634 4.3269L2.09497 0L1.17834 0.918093L1.17907 0.920289C1.17322 0.926878 1.16589 0.930539 1.15857 0.938592C-1.1535 3.24993 0.0918576 7.98243 4.05562 11.9462C8.01938 15.9092 12.7511 17.1538 15.0639 14.8432C15.0705 14.8359 15.0757 14.8286 15.0815 14.822L15.9981 13.9039L11.6727 11.1225L9.45509 11.9484Z" fill="#101010"/>
<path d="M14.716 8.328H15.9972C15.9972 3.7368 12.2619 0 7.66992 0V1.28123C11.5553 1.28123 14.716 4.44331 14.716 8.328Z" fill="#101010"/>
<path d="M12.1533 8.32803H13.4345C13.4345 5.14839 10.8493 2.5625 7.66895 2.5625V3.84373C10.1414 3.84373 12.1533 5.85563 12.1533 8.32803Z" fill="#101010"/>
<path d="M9.59103 8.32807H10.8723C10.8723 6.56144 9.43509 5.125 7.66992 5.125V6.40623C8.73005 6.40623 9.59103 7.26868 9.59103 8.32807Z" fill="#101010"/>
</svg>
