<svg width="70" height="67" viewBox="0 0 70 67" fill="none" xmlns="http://www.w3.org/2000/svg">
<path d="M7.71131 37.2146L-0.000184756 29.5031L1.51285 27.9901L7.71132 34.1885L14.6661 27.2338L21.6209 34.1885L29.0393 26.7701L35.5305 33.2613L42.4856 26.3061L49.4404 33.2609L56.1021 26.5992L57.6152 28.1122L49.4404 36.287L42.4856 29.3322L35.5305 36.2873L29.0393 29.7962L21.6209 37.2146L14.6661 30.2598L7.71131 37.2146Z" fill="url(#paint0_linear_91_1540)"/>
<path d="M19.8012 45.6873L12.0897 37.9758L13.6027 36.4627L19.8012 42.6612L26.7559 35.7064L33.7107 42.6612L41.1291 35.2428L47.6203 41.734L54.5755 34.7788L61.5303 41.7336L68.192 35.0719L69.705 36.5849L61.5303 44.7596L54.5755 37.8048L47.6203 44.76L41.1291 38.2688L33.7107 45.6873L26.7559 38.7325L19.8012 45.6873Z" fill="url(#paint1_linear_91_1540)"/>
<defs>
<linearGradient id="paint0_linear_91_1540" x1="14.7514" y1="14.7516" x2="42.8636" y2="42.8638" gradientUnits="userSpaceOnUse">
<stop stop-color="#F94743"/>
<stop offset="1" stop-color="#FF7B49"/>
</linearGradient>
<linearGradient id="paint1_linear_91_1540" x1="26.8412" y1="23.2242" x2="54.9534" y2="51.3364" gradientUnits="userSpaceOnUse">
<stop stop-color="#F94743"/>
<stop offset="1" stop-color="#FF7B49"/>
</linearGradient>
</defs>
</svg>
