<svg width="67" height="37" viewBox="0 0 67 37" fill="none" xmlns="http://www.w3.org/2000/svg">
<path d="M65.519 36.2153L67.0029 34.7314L61.314 29.0425L59.8301 30.5264L65.519 36.2153Z" fill="#101010"/>
<path d="M66.9859 30.5308L65.502 29.0469L59.813 34.7358L61.2969 36.2198L66.9859 30.5308Z" fill="#101010"/>
<path d="M50.5639 36.2153L52.0479 34.7314L46.3589 29.0425L44.875 30.5264L50.5639 36.2153Z" fill="#101010"/>
<path d="M52.0327 30.5308L50.5488 29.0469L44.8599 34.7358L46.3438 36.2198L52.0327 30.5308Z" fill="#101010"/>
<path d="M35.605 36.2056L37.0889 34.7217L31.3999 29.0327L29.916 30.5166L35.605 36.2056Z" fill="#101010"/>
<path d="M37.0884 30.5239L35.6045 29.04L29.9155 34.729L31.3994 36.2129L37.0884 30.5239Z" fill="#101010"/>
<path d="M20.6567 36.2153L22.1406 34.7314L16.4517 29.0425L14.9677 30.5264L20.6567 36.2153Z" fill="#101010"/>
<path d="M22.1255 30.5298L20.6416 29.0459L14.9526 34.7349L16.4365 36.2188L22.1255 30.5298Z" fill="#101010"/>
<path d="M5.7036 36.2153L7.1875 34.7314L1.49853 29.0425L0.0146217 30.5264L5.7036 36.2153Z" fill="#101010"/>
<path d="M7.17336 30.5298L5.68945 29.0459L0.0004784 34.7349L1.48438 36.2188L7.17336 30.5298Z" fill="#101010"/>
<path d="M65.5249 21.1831L67.0088 19.6992L61.3198 14.0102L59.8359 15.4941L65.5249 21.1831Z" fill="#101010"/>
<path d="M66.9956 15.4839L65.5117 14L59.8227 19.689L61.3066 21.1729L66.9956 15.4839Z" fill="#101010"/>
<path d="M50.5718 21.1831L52.0557 19.6992L46.3667 14.0102L44.8828 15.4941L50.5718 21.1831Z" fill="#101010"/>
<path d="M52.0425 15.4839L50.5586 14L44.8696 19.689L46.3535 21.1729L52.0425 15.4839Z" fill="#101010"/>
<path d="M35.6109 21.1743L37.0947 19.6904L31.4057 14.0014L29.9219 15.4853L35.6109 21.1743Z" fill="#101010"/>
<path d="M37.0972 15.478L35.6133 13.9941L29.9243 19.6831L31.4082 21.167L37.0972 15.478Z" fill="#101010"/>
<path d="M20.6626 21.1831L22.1465 19.6992L16.4575 14.0102L14.9736 15.4941L20.6626 21.1831Z" fill="#101010"/>
<path d="M22.1343 15.4839L20.6504 14L14.9614 19.689L16.4453 21.1729L22.1343 15.4839Z" fill="#101010"/>
<path d="M5.70946 21.1841L7.19336 19.7002L1.50438 14.0112L0.0204736 15.4951L5.70946 21.1841Z" fill="#101010"/>
<path d="M7.18215 15.4849L5.69824 14.001L0.00926004 19.69L1.49316 21.1739L7.18215 15.4849Z" fill="#101010"/>
<path d="M65.518 7.18312L67.002 5.69922L61.313 0.0102407L59.8291 1.49414L65.518 7.18312Z" fill="#101010"/>
<path d="M66.9956 1.49269L65.5117 0.00878906L59.8227 5.69777L61.3066 7.18167L66.9956 1.49269Z" fill="#101010"/>
<path d="M50.5649 7.18312L52.0488 5.69922L46.3599 0.0102407L44.8759 1.49414L50.5649 7.18312Z" fill="#101010"/>
<path d="M52.0425 1.49269L50.5586 0.00878906L44.8696 5.69777L46.3535 7.18167L52.0425 1.49269Z" fill="#101010"/>
<path d="M35.605 7.17333L37.0889 5.68945L31.3999 0.000475028L29.916 1.48435L35.605 7.17333Z" fill="#101010"/>
<path d="M37.0972 1.48583L35.6133 0.00195312L29.9243 5.69093L31.4082 7.17481L37.0972 1.48583Z" fill="#101010"/>
<path d="M20.6587 7.18312L22.1426 5.69922L16.4536 0.0102407L14.9697 1.49414L20.6587 7.18312Z" fill="#101010"/>
<path d="M22.1362 1.49269L20.6523 0.00878906L14.9634 5.69777L16.4473 7.18167L22.1362 1.49269Z" fill="#101010"/>
<path d="M5.7036 7.18312L7.1875 5.69922L1.49852 0.0102407L0.0146183 1.49414L5.7036 7.18312Z" fill="#101010"/>
<path d="M7.18215 1.49269L5.69824 0.00878906L0.00926409 5.69777L1.49317 7.18167L7.18215 1.49269Z" fill="#101010"/>
</svg>
