<svg width="40" height="40" viewBox="0 0 40 40" fill="none" xmlns="http://www.w3.org/2000/svg">
<g clip-path="url(#clip0_70_698)">
<path d="M26.3987 28.0011L28.2279 25.0363L31.5288 23.9118L31.8945 20.4488L34.378 18.0067L33.1972 14.7287L34.378 11.4506L31.8946 9.00849L31.5289 5.54556L28.2279 4.42106L26.3988 1.45623L22.939 1.87349L20 0L17.0611 1.87365L13.6014 1.45639L11.7722 4.42114L8.47129 5.54564L8.10559 9.00857L5.62207 11.4507L6.80285 14.7288L5.62207 18.0068L8.10551 20.4489L8.47121 23.9119L11.7721 25.0364L13.6013 28.0011L17.0611 27.584L20 29.4575L22.939 27.584L26.3987 28.0011ZM9.8884 14.7288C9.8884 9.15957 14.4245 4.62863 20 4.62863C25.5756 4.62863 30.1117 9.15957 30.1117 14.7288C30.1117 20.298 25.5756 24.8289 20 24.8289C14.4245 24.8289 9.8884 20.298 9.8884 14.7288Z" fill="white"/>
<path d="M20 6.97119C15.7176 6.97119 12.2336 10.4512 12.2336 14.7288C12.2336 19.0063 15.7176 22.4863 20 22.4863C24.2825 22.4863 27.7665 19.0063 27.7665 14.7288C27.7665 10.4512 24.2825 6.97119 20 6.97119Z" fill="white"/>
<path d="M16.5077 30.0101L12.3921 30.5064L10.2177 26.9817L9.47843 26.73L6.28992 36.6847L12.0302 36.3694L16.5212 39.9544L19.164 31.7035L16.5077 30.0101Z" fill="white"/>
<path d="M29.7824 26.9818L27.6079 30.5064L23.4923 30.0101L20.8361 31.7035L23.4789 39.9544L27.9699 36.3694L33.7101 36.6847L30.5216 26.73L29.7824 26.9818Z" fill="white"/>
</g>
<defs>
<clipPath id="clip0_70_698">
<rect width="40" height="39.9545" fill="white"/>
</clipPath>
</defs>
</svg>
